<svg version="1.1" viewBox="0.0 0.0 512.0 512.0" fill="none" stroke="none" stroke-linecap="square" stroke-miterlimit="10" xmlns:xlink="http://www.w3.org/1999/xlink" xmlns="http://www.w3.org/2000/svg"><clipPath id="p.0"><path d="m0 0l512.0 0l0 512.0l-512.0 0l0 -512.0z" clip-rule="nonzero"/></clipPath><g clip-path="url(#p.0)"><path fill="#000000" fill-opacity="0.0" d="m0 0l512.0 0l0 512.0l-512.0 0z" fill-rule="evenodd"/><path fill="#000000" d="m0 1.0629921l512.0 0l0 510.92914l-512.0 0z" fill-rule="evenodd"/><path stroke="#000000" stroke-width="1.0" stroke-linejoin="round" stroke-linecap="butt" d="m0 1.0629921l512.0 0l0 510.92914l-512.0 0z" fill-rule="evenodd"/><path fill="#f5593d" d="m432.20752 226.7907l0 42.330704l-220.56693 0l0 -42.330704z" fill-rule="evenodd"/><path stroke="#f5593d" stroke-width="1.0" stroke-linejoin="round" stroke-linecap="butt" d="m432.20752 226.7907l0 42.330704l-220.56693 0l0 -42.330704z" fill-rule="evenodd"/><path fill="#f5593d" d="m432.20752 326.34546l-42.33072 0l0 -99.52754l42.33072 0z" fill-rule="evenodd"/><path stroke="#f5593d" stroke-width="1.0" stroke-linejoin="round" stroke-linecap="butt" d="m432.20752 326.34546l-42.33072 0l0 -99.52754l42.33072 0z" fill-rule="evenodd"/><path fill="#f5593d" d="m347.51788 326.34546l-42.33072 0l0 -99.52754l42.33072 0z" fill-rule="evenodd"/><path stroke="#f5593d" stroke-width="1.0" stroke-linejoin="round" stroke-linecap="butt" d="m347.51788 326.34546l-42.33072 0l0 -99.52754l42.33072 0z" fill-rule="evenodd"/><path fill="#f5593d" d="m76.19948 249.28084l0 0c0 -42.556366 34.49875 -77.055115 77.055115 -77.055115l0 0c20.436295 0 40.035553 8.118286 54.48619 22.568924c14.450638 14.450638 22.568924 34.04991 22.568924 54.48619l0 0c0 42.55638 -34.49875 77.05513 -77.055115 77.05513l0 0c-42.556366 0 -77.055115 -34.49875 -77.055115 -77.05513z" fill-rule="evenodd"/><path stroke="#f5593d" stroke-width="1.0" stroke-linejoin="round" stroke-linecap="butt" d="m76.19948 249.28084l0 0c0 -42.556366 34.49875 -77.055115 77.055115 -77.055115l0 0c20.436295 0 40.035553 8.118286 54.48619 22.568924c14.450638 14.450638 22.568924 34.04991 22.568924 54.48619l0 0c0 42.55638 -34.49875 77.05513 -77.055115 77.05513l0 0c-42.556366 0 -77.055115 -34.49875 -77.055115 -77.05513z" fill-rule="evenodd"/><path fill="#000000" d="m114.845146 247.95538l0 0c0 -21.212952 17.196495 -38.409454 38.409447 -38.409454l0 0c10.186813 0 19.956406 4.046707 27.159576 11.249863c7.203171 7.203171 11.249878 16.972763 11.249878 27.159592l0 0c0 21.212952 -17.196503 38.409454 -38.409454 38.409454l0 0c-21.212952 0 -38.409447 -17.196503 -38.409447 -38.409454z" fill-rule="evenodd"/><path stroke="#000000" stroke-width="1.0" stroke-linejoin="round" stroke-linecap="butt" d="m114.845146 247.95538l0 0c0 -21.212952 17.196495 -38.409454 38.409447 -38.409454l0 0c10.186813 0 19.956406 4.046707 27.159576 11.249863c7.203171 7.203171 11.249878 16.972763 11.249878 27.159592l0 0c0 21.212952 -17.196503 38.409454 -38.409454 38.409454l0 0c-21.212952 0 -38.409447 -17.196503 -38.409447 -38.409454z" fill-rule="evenodd"/></g></svg>